<mxfile host="app.diagrams.net" modified="2024-05-30T23:39:45.944Z" agent="Mozilla/5.0 (Windows NT 10.0; Win64; x64) AppleWebKit/537.36 (KHTML, like Gecko) Chrome/125.0.0.0 Safari/537.36" etag="nnef1Anfg_NpA22Icrwl" version="24.4.7" type="github" pages="3">
  <diagram name="Página-1" id="RvVabkoj3_wjCJ5sBmXR">
    <mxGraphModel dx="2876" dy="2283" grid="1" gridSize="10" guides="1" tooltips="1" connect="1" arrows="1" fold="1" page="1" pageScale="1" pageWidth="827" pageHeight="1169" math="0" shadow="0">
      <root>
        <mxCell id="0" />
        <mxCell id="1" parent="0" />
        <mxCell id="DYaeCYadNBBWUJuQzcgG-5" value="Cliente" style="shape=umlActor;verticalLabelPosition=bottom;verticalAlign=top;html=1;" parent="1" vertex="1">
          <mxGeometry x="-330" y="80" width="140" height="230" as="geometry" />
        </mxCell>
        <mxCell id="DYaeCYadNBBWUJuQzcgG-7" value="" style="rounded=1;whiteSpace=wrap;html=1;absoluteArcSize=1;arcSize=14;strokeWidth=2;" parent="1" vertex="1">
          <mxGeometry x="-70" width="940" height="1030" as="geometry" />
        </mxCell>
        <mxCell id="DYaeCYadNBBWUJuQzcgG-8" value="&lt;p style=&quot;line-height: 270%;&quot;&gt;&lt;b style=&quot;&quot;&gt;&lt;i style=&quot;&quot;&gt;&lt;font face=&quot;Times New Roman&quot; style=&quot;font-size: 24px;&quot;&gt;Sistema&amp;nbsp;&lt;/font&gt;&lt;/i&gt;&lt;/b&gt;&lt;/p&gt;" style="text;html=1;align=center;verticalAlign=middle;whiteSpace=wrap;rounded=0;fontSize=18;" parent="1" vertex="1">
          <mxGeometry x="-160" width="380" height="90" as="geometry" />
        </mxCell>
        <mxCell id="DYaeCYadNBBWUJuQzcgG-12" value="Conferir disponibilidade das passagens" style="rounded=1;whiteSpace=wrap;html=1;" parent="1" vertex="1">
          <mxGeometry x="82" y="80" width="170" height="80" as="geometry" />
        </mxCell>
        <mxCell id="DYaeCYadNBBWUJuQzcgG-18" value="Reservar passagem" style="rounded=1;whiteSpace=wrap;html=1;" parent="1" vertex="1">
          <mxGeometry x="85" y="220" width="176.25" height="80" as="geometry" />
        </mxCell>
        <mxCell id="DYaeCYadNBBWUJuQzcgG-20" value="Informações dos clientes" style="rounded=1;whiteSpace=wrap;html=1;" parent="1" vertex="1">
          <mxGeometry x="83.13" y="410" width="180" height="80" as="geometry" />
        </mxCell>
        <mxCell id="DYaeCYadNBBWUJuQzcgG-21" value="Pagamento" style="rounded=1;whiteSpace=wrap;html=1;" parent="1" vertex="1">
          <mxGeometry x="79" y="550" width="173" height="80" as="geometry" />
        </mxCell>
        <mxCell id="DYaeCYadNBBWUJuQzcgG-22" value="Cancelar passagem" style="rounded=1;whiteSpace=wrap;html=1;" parent="1" vertex="1">
          <mxGeometry x="78.5" y="700" width="180" height="80" as="geometry" />
        </mxCell>
        <mxCell id="il-5PeIWP6zjr5cJNfuw-45" style="edgeStyle=orthogonalEdgeStyle;rounded=0;orthogonalLoop=1;jettySize=auto;html=1;exitX=0;exitY=0.3333333333333333;exitDx=0;exitDy=0;exitPerimeter=0;entryX=1;entryY=0.25;entryDx=0;entryDy=0;" edge="1" parent="1" source="Ul-1hZijeUlvixCKkCNt-15" target="DYaeCYadNBBWUJuQzcgG-18">
          <mxGeometry relative="1" as="geometry">
            <Array as="points">
              <mxPoint x="890" y="150" />
              <mxPoint x="890" y="240" />
            </Array>
          </mxGeometry>
        </mxCell>
        <mxCell id="il-5PeIWP6zjr5cJNfuw-46" style="edgeStyle=orthogonalEdgeStyle;rounded=0;orthogonalLoop=1;jettySize=auto;html=1;exitX=0;exitY=0.3333333333333333;exitDx=0;exitDy=0;exitPerimeter=0;entryX=1;entryY=0.75;entryDx=0;entryDy=0;" edge="1" parent="1" source="Ul-1hZijeUlvixCKkCNt-15" target="DYaeCYadNBBWUJuQzcgG-21">
          <mxGeometry relative="1" as="geometry">
            <Array as="points">
              <mxPoint x="910" y="610" />
            </Array>
          </mxGeometry>
        </mxCell>
        <mxCell id="il-5PeIWP6zjr5cJNfuw-47" style="edgeStyle=orthogonalEdgeStyle;rounded=0;orthogonalLoop=1;jettySize=auto;html=1;exitX=0;exitY=0.3333333333333333;exitDx=0;exitDy=0;exitPerimeter=0;entryX=1;entryY=0.5;entryDx=0;entryDy=0;" edge="1" parent="1" source="Ul-1hZijeUlvixCKkCNt-15" target="DYaeCYadNBBWUJuQzcgG-22">
          <mxGeometry relative="1" as="geometry">
            <Array as="points">
              <mxPoint x="940" y="150" />
              <mxPoint x="940" y="740" />
            </Array>
          </mxGeometry>
        </mxCell>
        <mxCell id="il-5PeIWP6zjr5cJNfuw-48" style="edgeStyle=orthogonalEdgeStyle;rounded=0;orthogonalLoop=1;jettySize=auto;html=1;exitX=0;exitY=0.3333333333333333;exitDx=0;exitDy=0;exitPerimeter=0;entryX=1;entryY=0.5;entryDx=0;entryDy=0;" edge="1" parent="1" source="Ul-1hZijeUlvixCKkCNt-15" target="il-5PeIWP6zjr5cJNfuw-1">
          <mxGeometry relative="1" as="geometry">
            <Array as="points">
              <mxPoint x="970" y="150" />
              <mxPoint x="970" y="940" />
            </Array>
          </mxGeometry>
        </mxCell>
        <mxCell id="Ul-1hZijeUlvixCKkCNt-15" value="Sistema de Passagem" style="shape=umlActor;verticalLabelPosition=bottom;verticalAlign=top;html=1;" parent="1" vertex="1">
          <mxGeometry x="980" y="70" width="140" height="240" as="geometry" />
        </mxCell>
        <mxCell id="Ul-1hZijeUlvixCKkCNt-27" value="" style="edgeStyle=none;orthogonalLoop=1;jettySize=auto;html=1;rounded=0;exitX=0.5;exitY=1;exitDx=0;exitDy=0;entryX=0.5;entryY=0;entryDx=0;entryDy=0;" parent="1" source="DYaeCYadNBBWUJuQzcgG-18" target="DYaeCYadNBBWUJuQzcgG-20" edge="1">
          <mxGeometry width="100" relative="1" as="geometry">
            <mxPoint x="180" y="370" as="sourcePoint" />
            <mxPoint x="280" y="370" as="targetPoint" />
            <Array as="points" />
          </mxGeometry>
        </mxCell>
        <mxCell id="Ul-1hZijeUlvixCKkCNt-28" value="Text" style="edgeLabel;html=1;align=center;verticalAlign=middle;resizable=0;points=[];" parent="Ul-1hZijeUlvixCKkCNt-27" vertex="1" connectable="0">
          <mxGeometry x="-0.0647" y="-3" relative="1" as="geometry">
            <mxPoint as="offset" />
          </mxGeometry>
        </mxCell>
        <mxCell id="Ul-1hZijeUlvixCKkCNt-30" value="&lt;font size=&quot;3&quot; face=&quot;Times New Roman&quot;&gt;&amp;lt;&amp;lt;Include&amp;gt;&amp;gt;&lt;/font&gt;" style="edgeLabel;html=1;align=center;verticalAlign=middle;resizable=0;points=[];" parent="Ul-1hZijeUlvixCKkCNt-27" vertex="1" connectable="0">
          <mxGeometry x="-0.1328" y="-6" relative="1" as="geometry">
            <mxPoint as="offset" />
          </mxGeometry>
        </mxCell>
        <mxCell id="il-5PeIWP6zjr5cJNfuw-1" value="Reembolsar Dinheiro" style="rounded=1;whiteSpace=wrap;html=1;" vertex="1" parent="1">
          <mxGeometry x="331" y="900" width="165" height="80" as="geometry" />
        </mxCell>
        <mxCell id="il-5PeIWP6zjr5cJNfuw-2" value="" style="endArrow=classic;html=1;rounded=0;exitX=0.539;exitY=0.975;exitDx=0;exitDy=0;entryX=0.5;entryY=0;entryDx=0;entryDy=0;exitPerimeter=0;" edge="1" parent="1" source="DYaeCYadNBBWUJuQzcgG-22" target="il-5PeIWP6zjr5cJNfuw-1">
          <mxGeometry width="50" height="50" relative="1" as="geometry">
            <mxPoint x="290" y="450" as="sourcePoint" />
            <mxPoint x="340" y="400" as="targetPoint" />
            <Array as="points" />
          </mxGeometry>
        </mxCell>
        <mxCell id="il-5PeIWP6zjr5cJNfuw-5" value="&lt;font style=&quot;font-size: 16px;&quot; face=&quot;Times New Roman&quot;&gt;&amp;lt;&amp;lt;Extends&amp;gt;&amp;gt;&lt;/font&gt;" style="edgeLabel;html=1;align=center;verticalAlign=middle;resizable=0;points=[];" vertex="1" connectable="0" parent="il-5PeIWP6zjr5cJNfuw-2">
          <mxGeometry x="-0.0565" relative="1" as="geometry">
            <mxPoint as="offset" />
          </mxGeometry>
        </mxCell>
        <mxCell id="il-5PeIWP6zjr5cJNfuw-15" value="" style="endArrow=classic;html=1;rounded=0;exitX=1;exitY=0.5;exitDx=0;exitDy=0;entryX=1;entryY=0.5;entryDx=0;entryDy=0;" edge="1" parent="1" target="DYaeCYadNBBWUJuQzcgG-21">
          <mxGeometry width="50" height="50" relative="1" as="geometry">
            <mxPoint x="261.75" y="260" as="sourcePoint" />
            <mxPoint x="252" y="570" as="targetPoint" />
            <Array as="points">
              <mxPoint x="470.5" y="260" />
              <mxPoint x="470" y="590" />
            </Array>
          </mxGeometry>
        </mxCell>
        <mxCell id="il-5PeIWP6zjr5cJNfuw-17" value="&lt;font face=&quot;Times New Roman&quot;&gt;&lt;span style=&quot;font-size: 16px;&quot;&gt;&amp;lt;&amp;lt;Include&amp;gt;&amp;gt;&lt;/span&gt;&lt;/font&gt;" style="edgeLabel;html=1;align=center;verticalAlign=middle;resizable=0;points=[];" vertex="1" connectable="0" parent="il-5PeIWP6zjr5cJNfuw-15">
          <mxGeometry x="-0.0638" y="1" relative="1" as="geometry">
            <mxPoint as="offset" />
          </mxGeometry>
        </mxCell>
        <mxCell id="il-5PeIWP6zjr5cJNfuw-25" value="" style="edgeStyle=orthogonalEdgeStyle;rounded=0;orthogonalLoop=1;jettySize=auto;html=1;exitX=1;exitY=0.3333333333333333;exitDx=0;exitDy=0;exitPerimeter=0;entryX=0;entryY=0.5;entryDx=0;entryDy=0;" edge="1" parent="1" source="DYaeCYadNBBWUJuQzcgG-5" target="DYaeCYadNBBWUJuQzcgG-12">
          <mxGeometry relative="1" as="geometry">
            <Array as="points">
              <mxPoint x="-100" y="157" />
              <mxPoint x="-100" y="120" />
            </Array>
          </mxGeometry>
        </mxCell>
        <mxCell id="il-5PeIWP6zjr5cJNfuw-39" style="edgeStyle=orthogonalEdgeStyle;rounded=0;orthogonalLoop=1;jettySize=auto;html=1;exitX=1;exitY=0.3333333333333333;exitDx=0;exitDy=0;exitPerimeter=0;entryX=0;entryY=0.5;entryDx=0;entryDy=0;" edge="1" parent="1" source="DYaeCYadNBBWUJuQzcgG-5" target="DYaeCYadNBBWUJuQzcgG-18">
          <mxGeometry relative="1" as="geometry" />
        </mxCell>
        <mxCell id="il-5PeIWP6zjr5cJNfuw-40" style="edgeStyle=orthogonalEdgeStyle;rounded=0;orthogonalLoop=1;jettySize=auto;html=1;exitX=1;exitY=0.3333333333333333;exitDx=0;exitDy=0;exitPerimeter=0;entryX=0;entryY=0.5;entryDx=0;entryDy=0;" edge="1" parent="1" source="DYaeCYadNBBWUJuQzcgG-5" target="DYaeCYadNBBWUJuQzcgG-20">
          <mxGeometry relative="1" as="geometry">
            <Array as="points">
              <mxPoint x="-100" y="157" />
              <mxPoint x="-100" y="450" />
            </Array>
          </mxGeometry>
        </mxCell>
        <mxCell id="il-5PeIWP6zjr5cJNfuw-41" style="edgeStyle=orthogonalEdgeStyle;rounded=0;orthogonalLoop=1;jettySize=auto;html=1;exitX=1;exitY=0.3333333333333333;exitDx=0;exitDy=0;exitPerimeter=0;entryX=0;entryY=0.5;entryDx=0;entryDy=0;" edge="1" parent="1" source="DYaeCYadNBBWUJuQzcgG-5" target="DYaeCYadNBBWUJuQzcgG-21">
          <mxGeometry relative="1" as="geometry">
            <Array as="points">
              <mxPoint x="-130" y="157" />
              <mxPoint x="-130" y="590" />
            </Array>
          </mxGeometry>
        </mxCell>
        <mxCell id="il-5PeIWP6zjr5cJNfuw-42" style="edgeStyle=orthogonalEdgeStyle;rounded=0;orthogonalLoop=1;jettySize=auto;html=1;exitX=1;exitY=0.3333333333333333;exitDx=0;exitDy=0;exitPerimeter=0;entryX=0;entryY=0.5;entryDx=0;entryDy=0;" edge="1" parent="1" source="DYaeCYadNBBWUJuQzcgG-5" target="DYaeCYadNBBWUJuQzcgG-22">
          <mxGeometry relative="1" as="geometry">
            <Array as="points">
              <mxPoint x="-170" y="157" />
              <mxPoint x="-170" y="740" />
            </Array>
          </mxGeometry>
        </mxCell>
        <mxCell id="il-5PeIWP6zjr5cJNfuw-43" style="edgeStyle=orthogonalEdgeStyle;rounded=0;orthogonalLoop=1;jettySize=auto;html=1;exitX=0;exitY=0.3333333333333333;exitDx=0;exitDy=0;exitPerimeter=0;entryX=1;entryY=0.5;entryDx=0;entryDy=0;" edge="1" parent="1" source="Ul-1hZijeUlvixCKkCNt-15" target="DYaeCYadNBBWUJuQzcgG-12">
          <mxGeometry relative="1" as="geometry">
            <Array as="points">
              <mxPoint x="910" y="120" />
            </Array>
          </mxGeometry>
        </mxCell>
      </root>
    </mxGraphModel>
  </diagram>
  <diagram id="2iYnQJZTi7TUaGKJT7_B" name="Página-2">
    <mxGraphModel dx="1257" dy="669" grid="1" gridSize="10" guides="1" tooltips="1" connect="1" arrows="1" fold="1" page="1" pageScale="1" pageWidth="827" pageHeight="1169" math="0" shadow="0">
      <root>
        <mxCell id="0" />
        <mxCell id="1" parent="0" />
        <mxCell id="Pmrm_dUN2plgT6Q9p2Gi-1" value="&lt;p style=&quot;margin:0px;margin-top:4px;text-align:center;&quot;&gt;&lt;b&gt;Passagem&lt;/b&gt;&lt;/p&gt;&lt;hr size=&quot;1&quot; style=&quot;border-style:solid;&quot;&gt;&lt;p style=&quot;margin:0px;margin-left:4px;&quot;&gt;- disponibilidadePassagem: Boolean&lt;br&gt;&lt;/p&gt;&lt;p style=&quot;margin:0px;margin-left:4px;&quot;&gt;&lt;br&gt;&lt;/p&gt;&lt;p style=&quot;margin:0px;margin-left:4px;&quot;&gt;&lt;span style=&quot;background-color: initial;&quot;&gt;- tipoPassagem: String&lt;/span&gt;&lt;/p&gt;&lt;p style=&quot;margin:0px;margin-left:4px;&quot;&gt;&lt;span style=&quot;background-color: initial;&quot;&gt;&lt;br&gt;&lt;/span&gt;&lt;/p&gt;&lt;p style=&quot;margin:0px;margin-left:4px;&quot;&gt;&lt;span style=&quot;background-color: initial;&quot;&gt;- origemPassagem: String&lt;/span&gt;&lt;/p&gt;&lt;p style=&quot;margin:0px;margin-left:4px;&quot;&gt;&lt;span style=&quot;background-color: initial;&quot;&gt;&lt;br&gt;&lt;/span&gt;&lt;/p&gt;&lt;p style=&quot;margin:0px;margin-left:4px;&quot;&gt;&lt;span style=&quot;background-color: initial;&quot;&gt;- destino: String&lt;/span&gt;&lt;/p&gt;&lt;p style=&quot;margin:0px;margin-left:4px;&quot;&gt;&lt;span style=&quot;background-color: initial;&quot;&gt;&lt;br&gt;&lt;/span&gt;&lt;/p&gt;&lt;p style=&quot;margin:0px;margin-left:4px;&quot;&gt;&lt;span style=&quot;background-color: initial;&quot;&gt;- dataPassagem: Date&lt;/span&gt;&lt;/p&gt;&lt;p style=&quot;margin:0px;margin-left:4px;&quot;&gt;&lt;span style=&quot;background-color: initial;&quot;&gt;&lt;br&gt;&lt;/span&gt;&lt;/p&gt;&lt;hr size=&quot;1&quot; style=&quot;border-style:solid;&quot;&gt;&lt;p style=&quot;margin:0px;margin-left:4px;&quot;&gt;+ getters e setters()&lt;/p&gt;" style="verticalAlign=top;align=left;overflow=fill;html=1;whiteSpace=wrap;" vertex="1" parent="1">
          <mxGeometry x="60" y="230" width="240" height="220" as="geometry" />
        </mxCell>
        <mxCell id="Pmrm_dUN2plgT6Q9p2Gi-2" value="&lt;p style=&quot;margin:0px;margin-top:4px;text-align:center;&quot;&gt;&lt;b&gt;Pagamento&lt;/b&gt;&lt;/p&gt;&lt;hr size=&quot;1&quot; style=&quot;border-style:solid;&quot;&gt;&lt;p style=&quot;margin:0px;margin-left:4px;&quot;&gt;- valorTotal: Double&lt;/p&gt;&lt;p style=&quot;margin:0px;margin-left:4px;&quot;&gt;&lt;br&gt;&lt;/p&gt;&lt;p style=&quot;margin:0px;margin-left:4px;&quot;&gt;- tipoPagamento: String&lt;/p&gt;&lt;p style=&quot;margin:0px;margin-left:4px;&quot;&gt;&lt;br&gt;&lt;/p&gt;&lt;p style=&quot;margin:0px;margin-left:4px;&quot;&gt;- statusPagamento: String&lt;/p&gt;&lt;p style=&quot;margin:0px;margin-left:4px;&quot;&gt;&lt;br&gt;&lt;/p&gt;&lt;p style=&quot;margin:0px;margin-left:4px;&quot;&gt;- dataPagamento: Date&lt;/p&gt;&lt;hr size=&quot;1&quot; style=&quot;border-style:solid;&quot;&gt;&lt;p style=&quot;margin:0px;margin-left:4px;&quot;&gt;+ getters e setters()&lt;/p&gt;&lt;p style=&quot;margin:0px;margin-left:4px;&quot;&gt;&lt;br&gt;&lt;/p&gt;&lt;p style=&quot;margin:0px;margin-left:4px;&quot;&gt;+ parcelamento(parcela: int) : void&lt;/p&gt;" style="verticalAlign=top;align=left;overflow=fill;html=1;whiteSpace=wrap;" vertex="1" parent="1">
          <mxGeometry x="400" y="440" width="240" height="210" as="geometry" />
        </mxCell>
        <mxCell id="qEPzCva7PQI35f2pIio0-1" value="&lt;p style=&quot;margin:0px;margin-top:4px;text-align:center;&quot;&gt;&lt;b&gt;InformacaoCliente&lt;/b&gt;&lt;/p&gt;&lt;hr size=&quot;1&quot; style=&quot;border-style:solid;&quot;&gt;&lt;p style=&quot;margin:0px;margin-left:4px;&quot;&gt;- nome: String&lt;/p&gt;&lt;p style=&quot;margin:0px;margin-left:4px;&quot;&gt;&lt;br&gt;&lt;/p&gt;&lt;p style=&quot;margin:0px;margin-left:4px;&quot;&gt;- cpf: String&lt;/p&gt;&lt;p style=&quot;margin:0px;margin-left:4px;&quot;&gt;&amp;nbsp;&lt;/p&gt;&lt;p style=&quot;margin:0px;margin-left:4px;&quot;&gt;- bairro: String&lt;/p&gt;&lt;p style=&quot;margin:0px;margin-left:4px;&quot;&gt;&lt;br&gt;&lt;/p&gt;&lt;p style=&quot;margin:0px;margin-left:4px;&quot;&gt;- rua: String&lt;/p&gt;&lt;p style=&quot;margin:0px;margin-left:4px;&quot;&gt;&lt;br&gt;&lt;/p&gt;&lt;p style=&quot;margin:0px;margin-left:4px;&quot;&gt;- estado: String&lt;/p&gt;&lt;p style=&quot;margin:0px;margin-left:4px;&quot;&gt;&lt;br&gt;&lt;/p&gt;&lt;p style=&quot;margin:0px;margin-left:4px;&quot;&gt;- telefone: String&lt;/p&gt;&lt;p style=&quot;margin:0px;margin-left:4px;&quot;&gt;&lt;br&gt;&lt;/p&gt;&lt;p style=&quot;margin:0px;margin-left:4px;&quot;&gt;- email: String&lt;/p&gt;&lt;hr size=&quot;1&quot; style=&quot;border-style:solid;&quot;&gt;&lt;p style=&quot;margin:0px;margin-left:4px;&quot;&gt;+ getters e setters()&lt;br&gt;&lt;/p&gt;&lt;p style=&quot;margin:0px;margin-left:4px;&quot;&gt;&lt;br&gt;&lt;/p&gt;&lt;p style=&quot;margin:0px;margin-left:4px;&quot;&gt;&lt;br&gt;&lt;/p&gt;" style="verticalAlign=top;align=left;overflow=fill;html=1;whiteSpace=wrap;" vertex="1" parent="1">
          <mxGeometry x="770" y="210" width="270" height="260" as="geometry" />
        </mxCell>
        <mxCell id="qEPzCva7PQI35f2pIio0-2" value="&lt;p style=&quot;margin:0px;margin-top:4px;text-align:center;&quot;&gt;&lt;b&gt;ReservaPassagem&lt;/b&gt;&lt;/p&gt;&lt;hr size=&quot;1&quot; style=&quot;border-style:solid;&quot;&gt;&lt;p style=&quot;margin:0px;margin-left:4px;&quot;&gt;- passagem: Passagem&lt;/p&gt;&lt;p style=&quot;margin:0px;margin-left:4px;&quot;&gt;&lt;br&gt;&lt;/p&gt;&lt;p style=&quot;margin:0px;margin-left:4px;&quot;&gt;- pagamento: Pagamento&lt;/p&gt;&lt;p style=&quot;margin:0px;margin-left:4px;&quot;&gt;&lt;br&gt;&lt;/p&gt;&lt;p style=&quot;margin:0px;margin-left:4px;&quot;&gt;&lt;span style=&quot;background-color: initial;&quot;&gt;- informacaoCliente: InformacaoCliente&lt;/span&gt;&lt;/p&gt;&lt;p style=&quot;margin:0px;margin-left:4px;&quot;&gt;&lt;span style=&quot;background-color: initial;&quot;&gt;&lt;br&gt;&lt;/span&gt;&lt;/p&gt;&lt;p style=&quot;margin:0px;margin-left:4px;&quot;&gt;&lt;span style=&quot;background-color: initial;&quot;&gt;- dataReserva: Date&lt;/span&gt;&lt;/p&gt;&lt;hr size=&quot;1&quot; style=&quot;border-style:solid;&quot;&gt;&lt;p style=&quot;margin:0px;margin-left:4px;&quot;&gt;+ getters e setters&amp;nbsp;&lt;/p&gt;&lt;p style=&quot;margin:0px;margin-left:4px;&quot;&gt;&lt;br&gt;&lt;/p&gt;&lt;p style=&quot;margin:0px;margin-left:4px;&quot;&gt;+ toString(): String&amp;nbsp;&lt;/p&gt;&lt;p style=&quot;margin:0px;margin-left:4px;&quot;&gt;&lt;br&gt;&lt;/p&gt;&lt;p style=&quot;margin:0px;margin-left:4px;&quot;&gt;&lt;br&gt;&lt;/p&gt;" style="verticalAlign=top;align=left;overflow=fill;html=1;whiteSpace=wrap;" vertex="1" parent="1">
          <mxGeometry x="400" width="240" height="200" as="geometry" />
        </mxCell>
        <mxCell id="qEPzCva7PQI35f2pIio0-3" value="" style="endArrow=diamondThin;endFill=0;endSize=24;html=1;rounded=0;exitX=0.5;exitY=0;exitDx=0;exitDy=0;entryX=0.5;entryY=1;entryDx=0;entryDy=0;" edge="1" parent="1" source="Pmrm_dUN2plgT6Q9p2Gi-2" target="qEPzCva7PQI35f2pIio0-2">
          <mxGeometry width="160" relative="1" as="geometry">
            <mxPoint x="440" y="290" as="sourcePoint" />
            <mxPoint x="520" y="210" as="targetPoint" />
          </mxGeometry>
        </mxCell>
        <mxCell id="qEPzCva7PQI35f2pIio0-4" value="" style="endArrow=diamondThin;endFill=0;endSize=24;html=1;rounded=0;exitX=0.995;exitY=0.544;exitDx=0;exitDy=0;exitPerimeter=0;entryX=0.25;entryY=1;entryDx=0;entryDy=0;" edge="1" parent="1" source="Pmrm_dUN2plgT6Q9p2Gi-1" target="qEPzCva7PQI35f2pIio0-2">
          <mxGeometry width="160" relative="1" as="geometry">
            <mxPoint x="350" y="410" as="sourcePoint" />
            <mxPoint x="510" y="410" as="targetPoint" />
          </mxGeometry>
        </mxCell>
        <mxCell id="qEPzCva7PQI35f2pIio0-5" value="" style="endArrow=diamondThin;endFill=0;endSize=24;html=1;rounded=0;entryX=0.75;entryY=1;entryDx=0;entryDy=0;exitX=0;exitY=0.5;exitDx=0;exitDy=0;" edge="1" parent="1" source="qEPzCva7PQI35f2pIio0-1" target="qEPzCva7PQI35f2pIio0-2">
          <mxGeometry width="160" relative="1" as="geometry">
            <mxPoint x="580" y="300" as="sourcePoint" />
            <mxPoint x="740" y="300" as="targetPoint" />
          </mxGeometry>
        </mxCell>
      </root>
    </mxGraphModel>
  </diagram>
  <diagram id="zQnWBowbL4_LyjM4Lmni" name="Página-3">
    <mxGraphModel dx="1434" dy="780" grid="1" gridSize="10" guides="1" tooltips="1" connect="1" arrows="1" fold="1" page="1" pageScale="1" pageWidth="827" pageHeight="1169" math="0" shadow="0">
      <root>
        <mxCell id="0" />
        <mxCell id="1" parent="0" />
        <mxCell id="raQxZAkN1bYKK2x1g5V5-29" value="Cliente" style="shape=umlLifeline;perimeter=lifelinePerimeter;whiteSpace=wrap;container=1;dropTarget=0;collapsible=0;recursiveResize=0;outlineConnect=0;portConstraint=eastwest;newEdgeStyle={&quot;edgeStyle&quot;:&quot;elbowEdgeStyle&quot;,&quot;elbow&quot;:&quot;vertical&quot;,&quot;curved&quot;:0,&quot;rounded&quot;:0};size=65;" vertex="1" parent="1">
          <mxGeometry x="20" y="1100" width="150" height="1418" as="geometry" />
        </mxCell>
        <mxCell id="raQxZAkN1bYKK2x1g5V5-30" value="Sistema de Venda de Passagens" style="shape=umlLifeline;perimeter=lifelinePerimeter;whiteSpace=wrap;container=1;dropTarget=0;collapsible=0;recursiveResize=0;outlineConnect=0;portConstraint=eastwest;newEdgeStyle={&quot;edgeStyle&quot;:&quot;elbowEdgeStyle&quot;,&quot;elbow&quot;:&quot;vertical&quot;,&quot;curved&quot;:0,&quot;rounded&quot;:0};size=65;" vertex="1" parent="1">
          <mxGeometry x="378" y="1100" width="244" height="1418" as="geometry" />
        </mxCell>
        <mxCell id="raQxZAkN1bYKK2x1g5V5-31" value="alt" style="shape=umlFrame;dashed=1;pointerEvents=0;dropTarget=0;strokeColor=#B3B3B3;height=20;width=30" vertex="1" parent="1">
          <mxGeometry x="85" y="1227" width="425" height="150" as="geometry" />
        </mxCell>
        <mxCell id="raQxZAkN1bYKK2x1g5V5-32" value="Escolha do meio de transporte" style="text;strokeColor=none;fillColor=none;align=center;verticalAlign=middle;whiteSpace=wrap;fontStyle=1" vertex="1" parent="raQxZAkN1bYKK2x1g5V5-31">
          <mxGeometry x="30" width="395" height="20" as="geometry" />
        </mxCell>
        <mxCell id="raQxZAkN1bYKK2x1g5V5-33" value="alt" style="shape=umlFrame;dashed=1;pointerEvents=0;dropTarget=0;strokeColor=#B3B3B3;height=20;width=30" vertex="1" parent="1">
          <mxGeometry x="85" y="1387" width="425" height="150" as="geometry" />
        </mxCell>
        <mxCell id="raQxZAkN1bYKK2x1g5V5-34" value="Escolha do horário" style="text;strokeColor=none;fillColor=none;align=center;verticalAlign=middle;whiteSpace=wrap;fontStyle=1" vertex="1" parent="raQxZAkN1bYKK2x1g5V5-33">
          <mxGeometry x="30" width="395" height="20" as="geometry" />
        </mxCell>
        <mxCell id="raQxZAkN1bYKK2x1g5V5-35" value="alt" style="shape=umlFrame;dashed=1;pointerEvents=0;dropTarget=0;strokeColor=#B3B3B3;height=20;width=30" vertex="1" parent="1">
          <mxGeometry x="85" y="1547" width="425" height="98" as="geometry" />
        </mxCell>
        <mxCell id="raQxZAkN1bYKK2x1g5V5-36" value="Consulta de valor" style="text;strokeColor=none;fillColor=none;align=center;verticalAlign=middle;whiteSpace=wrap;fontStyle=1" vertex="1" parent="raQxZAkN1bYKK2x1g5V5-35">
          <mxGeometry x="30" width="395" height="20" as="geometry" />
        </mxCell>
        <mxCell id="raQxZAkN1bYKK2x1g5V5-37" value="alt" style="shape=umlFrame;dashed=1;pointerEvents=0;dropTarget=0;strokeColor=#B3B3B3;height=20;width=30" vertex="1" parent="1">
          <mxGeometry x="85" y="1811" width="425" height="248" as="geometry" />
        </mxCell>
        <mxCell id="raQxZAkN1bYKK2x1g5V5-38" value="Pagamento aceito" style="text;strokeColor=none;fillColor=none;align=center;verticalAlign=middle;whiteSpace=wrap;fontStyle=1" vertex="1" parent="raQxZAkN1bYKK2x1g5V5-37">
          <mxGeometry x="30" width="395" height="20" as="geometry" />
        </mxCell>
        <mxCell id="raQxZAkN1bYKK2x1g5V5-39" value="Pagamento recusado" style="shape=line;dashed=1;whiteSpace=wrap;verticalAlign=top;labelPosition=center;verticalLabelPosition=middle;align=center;strokeColor=#B3B3B3;fontStyle=1" vertex="1" parent="raQxZAkN1bYKK2x1g5V5-37">
          <mxGeometry y="155" width="425" height="4" as="geometry" />
        </mxCell>
        <mxCell id="raQxZAkN1bYKK2x1g5V5-40" value="Iniciar compra" style="verticalAlign=bottom;endArrow=block;edgeStyle=elbowEdgeStyle;elbow=vertical;curved=0;rounded=0;" edge="1" parent="1" source="raQxZAkN1bYKK2x1g5V5-29" target="raQxZAkN1bYKK2x1g5V5-30">
          <mxGeometry relative="1" as="geometry">
            <Array as="points">
              <mxPoint x="308" y="1207" />
            </Array>
          </mxGeometry>
        </mxCell>
        <mxCell id="raQxZAkN1bYKK2x1g5V5-41" value="Apresentar opções de transporte (ônibus, trem)" style="verticalAlign=bottom;endArrow=block;edgeStyle=elbowEdgeStyle;elbow=vertical;curved=0;rounded=0;" edge="1" parent="1" source="raQxZAkN1bYKK2x1g5V5-30" target="raQxZAkN1bYKK2x1g5V5-29">
          <mxGeometry relative="1" as="geometry">
            <Array as="points">
              <mxPoint x="308" y="1305" />
            </Array>
          </mxGeometry>
        </mxCell>
        <mxCell id="raQxZAkN1bYKK2x1g5V5-42" value="Selecionar meio de transporte (ônibus/trem)" style="verticalAlign=bottom;endArrow=block;edgeStyle=elbowEdgeStyle;elbow=vertical;curved=0;rounded=0;" edge="1" parent="1" source="raQxZAkN1bYKK2x1g5V5-29" target="raQxZAkN1bYKK2x1g5V5-30">
          <mxGeometry relative="1" as="geometry">
            <Array as="points">
              <mxPoint x="308" y="1357" />
            </Array>
          </mxGeometry>
        </mxCell>
        <mxCell id="raQxZAkN1bYKK2x1g5V5-43" value="Apresentar horários disponíveis" style="verticalAlign=bottom;endArrow=block;edgeStyle=elbowEdgeStyle;elbow=vertical;curved=0;rounded=0;" edge="1" parent="1" source="raQxZAkN1bYKK2x1g5V5-30" target="raQxZAkN1bYKK2x1g5V5-29">
          <mxGeometry relative="1" as="geometry">
            <Array as="points">
              <mxPoint x="308" y="1465" />
            </Array>
          </mxGeometry>
        </mxCell>
        <mxCell id="raQxZAkN1bYKK2x1g5V5-44" value="Selecionar horário" style="verticalAlign=bottom;endArrow=block;edgeStyle=elbowEdgeStyle;elbow=vertical;curved=0;rounded=0;" edge="1" parent="1" source="raQxZAkN1bYKK2x1g5V5-29" target="raQxZAkN1bYKK2x1g5V5-30">
          <mxGeometry relative="1" as="geometry">
            <Array as="points">
              <mxPoint x="308" y="1517" />
            </Array>
          </mxGeometry>
        </mxCell>
        <mxCell id="raQxZAkN1bYKK2x1g5V5-45" value="Apresentar valor da passagem" style="verticalAlign=bottom;endArrow=block;edgeStyle=elbowEdgeStyle;elbow=vertical;curved=0;rounded=0;" edge="1" parent="1" source="raQxZAkN1bYKK2x1g5V5-30" target="raQxZAkN1bYKK2x1g5V5-29">
          <mxGeometry relative="1" as="geometry">
            <Array as="points">
              <mxPoint x="308" y="1625" />
            </Array>
          </mxGeometry>
        </mxCell>
        <mxCell id="raQxZAkN1bYKK2x1g5V5-46" value="Preencher informações pessoais" style="verticalAlign=bottom;endArrow=block;edgeStyle=elbowEdgeStyle;elbow=vertical;curved=0;rounded=0;" edge="1" parent="1" source="raQxZAkN1bYKK2x1g5V5-29" target="raQxZAkN1bYKK2x1g5V5-30">
          <mxGeometry relative="1" as="geometry">
            <Array as="points">
              <mxPoint x="308" y="1687" />
            </Array>
          </mxGeometry>
        </mxCell>
        <mxCell id="raQxZAkN1bYKK2x1g5V5-47" value="Confirmar informações pessoais recebidas" style="verticalAlign=bottom;endArrow=block;edgeStyle=elbowEdgeStyle;elbow=vertical;curved=0;rounded=0;" edge="1" parent="1" source="raQxZAkN1bYKK2x1g5V5-30" target="raQxZAkN1bYKK2x1g5V5-29">
          <mxGeometry relative="1" as="geometry">
            <Array as="points">
              <mxPoint x="308" y="1739" />
            </Array>
          </mxGeometry>
        </mxCell>
        <mxCell id="raQxZAkN1bYKK2x1g5V5-48" value="Realizar pagamento" style="verticalAlign=bottom;endArrow=block;edgeStyle=elbowEdgeStyle;elbow=vertical;curved=0;rounded=0;" edge="1" parent="1" source="raQxZAkN1bYKK2x1g5V5-29" target="raQxZAkN1bYKK2x1g5V5-30">
          <mxGeometry relative="1" as="geometry">
            <Array as="points">
              <mxPoint x="308" y="1791" />
            </Array>
          </mxGeometry>
        </mxCell>
        <mxCell id="raQxZAkN1bYKK2x1g5V5-49" value="Confirmar pagamento" style="verticalAlign=bottom;endArrow=block;edgeStyle=elbowEdgeStyle;elbow=vertical;curved=0;rounded=0;" edge="1" parent="1" source="raQxZAkN1bYKK2x1g5V5-30" target="raQxZAkN1bYKK2x1g5V5-29">
          <mxGeometry relative="1" as="geometry">
            <Array as="points">
              <mxPoint x="308" y="1889" />
            </Array>
          </mxGeometry>
        </mxCell>
        <mxCell id="raQxZAkN1bYKK2x1g5V5-50" value="Emitir passagem" style="verticalAlign=bottom;endArrow=block;edgeStyle=elbowEdgeStyle;elbow=vertical;curved=0;rounded=0;" edge="1" parent="1" source="raQxZAkN1bYKK2x1g5V5-30" target="raQxZAkN1bYKK2x1g5V5-29">
          <mxGeometry relative="1" as="geometry">
            <Array as="points">
              <mxPoint x="308" y="1941" />
            </Array>
          </mxGeometry>
        </mxCell>
        <mxCell id="raQxZAkN1bYKK2x1g5V5-51" value="Informar pagamento recusado" style="verticalAlign=bottom;endArrow=block;edgeStyle=elbowEdgeStyle;elbow=vertical;curved=0;rounded=0;" edge="1" parent="1" source="raQxZAkN1bYKK2x1g5V5-30" target="raQxZAkN1bYKK2x1g5V5-29">
          <mxGeometry relative="1" as="geometry">
            <Array as="points">
              <mxPoint x="308" y="2039" />
            </Array>
          </mxGeometry>
        </mxCell>
        <mxCell id="raQxZAkN1bYKK2x1g5V5-52" value="Reservar passagem" style="verticalAlign=bottom;endArrow=block;edgeStyle=elbowEdgeStyle;elbow=vertical;curved=0;rounded=0;" edge="1" parent="1" source="raQxZAkN1bYKK2x1g5V5-29" target="raQxZAkN1bYKK2x1g5V5-30">
          <mxGeometry relative="1" as="geometry">
            <Array as="points">
              <mxPoint x="308" y="2101" />
            </Array>
          </mxGeometry>
        </mxCell>
        <mxCell id="raQxZAkN1bYKK2x1g5V5-53" value="Confirmar reserva da passagem" style="verticalAlign=bottom;endArrow=block;edgeStyle=elbowEdgeStyle;elbow=vertical;curved=0;rounded=0;" edge="1" parent="1" source="raQxZAkN1bYKK2x1g5V5-30" target="raQxZAkN1bYKK2x1g5V5-29">
          <mxGeometry relative="1" as="geometry">
            <Array as="points">
              <mxPoint x="308" y="2153" />
            </Array>
          </mxGeometry>
        </mxCell>
        <mxCell id="raQxZAkN1bYKK2x1g5V5-54" value="Cancelar passagem" style="verticalAlign=bottom;endArrow=block;edgeStyle=elbowEdgeStyle;elbow=vertical;curved=0;rounded=0;" edge="1" parent="1" source="raQxZAkN1bYKK2x1g5V5-29" target="raQxZAkN1bYKK2x1g5V5-30">
          <mxGeometry relative="1" as="geometry">
            <Array as="points">
              <mxPoint x="308" y="2205" />
            </Array>
          </mxGeometry>
        </mxCell>
        <mxCell id="raQxZAkN1bYKK2x1g5V5-55" value="Confirmar cancelamento da passagem" style="verticalAlign=bottom;endArrow=block;edgeStyle=elbowEdgeStyle;elbow=vertical;curved=0;rounded=0;" edge="1" parent="1" source="raQxZAkN1bYKK2x1g5V5-30" target="raQxZAkN1bYKK2x1g5V5-29">
          <mxGeometry relative="1" as="geometry">
            <Array as="points">
              <mxPoint x="308" y="2257" />
            </Array>
          </mxGeometry>
        </mxCell>
        <mxCell id="raQxZAkN1bYKK2x1g5V5-56" value="Reembolsar dinheiro" style="verticalAlign=bottom;endArrow=block;edgeStyle=elbowEdgeStyle;elbow=vertical;curved=0;rounded=0;" edge="1" parent="1" source="raQxZAkN1bYKK2x1g5V5-30" target="raQxZAkN1bYKK2x1g5V5-29">
          <mxGeometry relative="1" as="geometry">
            <Array as="points">
              <mxPoint x="308" y="2309" />
            </Array>
          </mxGeometry>
        </mxCell>
        <mxCell id="raQxZAkN1bYKK2x1g5V5-57" value="Finalizar compra" style="verticalAlign=bottom;endArrow=block;edgeStyle=elbowEdgeStyle;elbow=vertical;curved=0;rounded=0;" edge="1" parent="1" source="raQxZAkN1bYKK2x1g5V5-29" target="raQxZAkN1bYKK2x1g5V5-30">
          <mxGeometry relative="1" as="geometry">
            <Array as="points">
              <mxPoint x="308" y="2361" />
            </Array>
          </mxGeometry>
        </mxCell>
        <mxCell id="raQxZAkN1bYKK2x1g5V5-58" value="Agradecer a compra" style="verticalAlign=bottom;endArrow=block;edgeStyle=elbowEdgeStyle;elbow=vertical;curved=0;rounded=0;" edge="1" parent="1" source="raQxZAkN1bYKK2x1g5V5-30" target="raQxZAkN1bYKK2x1g5V5-29">
          <mxGeometry relative="1" as="geometry">
            <Array as="points">
              <mxPoint x="308" y="2413" />
            </Array>
          </mxGeometry>
        </mxCell>
      </root>
    </mxGraphModel>
  </diagram>
</mxfile>
